<?xml version="1.0" encoding="utf-8"?>
<!-- Generator: Adobe Illustrator 27.4.0, SVG Export Plug-In . SVG Version: 6.00 Build 0)  -->
<svg version="1.1" id="Layer_1" xmlns="http://www.w3.org/2000/svg" xmlns:xlink="http://www.w3.org/1999/xlink" x="0px" y="0px"
	 viewBox="0 0 595.28 841.89" style="enable-background:new 0 0 595.28 841.89;" xml:space="preserve">
<style type="text/css">
	.st0{clip-path:url(#SVGID_00000125561017042211623570000009174760575236582064_);}
	.st1{fill:#F26747;}
</style>
<g>
	<defs>
		<rect id="SVGID_1_" x="-3" width="596.23" height="844.06"/>
	</defs>
	<clipPath id="SVGID_00000060722363838652351100000005868987577162262446_">
		<use xlink:href="#SVGID_1_"  style="overflow:visible;"/>
	</clipPath>
	<g style="clip-path:url(#SVGID_00000060722363838652351100000005868987577162262446_);">
		<g id="_x3C_Grid_Repeat_x3E__00000171698213729850644180000007576131138421891749_">
			<g>
				<circle class="st1" cx="25" cy="28" r="28"/>
				<circle class="st1" cx="105.42" cy="28" r="28"/>
				<circle class="st1" cx="67.16" cy="84" r="28"/>
				<circle class="st1" cx="25" cy="140" r="28"/>
				<circle class="st1" cx="105.42" cy="140" r="28"/>
			</g>
		</g>
		<g id="_x3C_Grid_Repeat_x3E__00000073714090175151967090000003893244036857249176_">
			<g>
				<circle class="st1" cx="171.42" cy="28" r="28"/>
				<circle class="st1" cx="251.83" cy="28" r="28"/>
				<circle class="st1" cx="213.57" cy="84" r="28"/>
				<circle class="st1" cx="171.42" cy="140" r="28"/>
				<circle class="st1" cx="251.83" cy="140" r="28"/>
			</g>
		</g>
		<g id="_x3C_Grid_Repeat_x3E__00000035489555426497508200000002989213976874337939_">
			<g>
				<circle class="st1" cx="317.83" cy="28" r="28"/>
				<circle class="st1" cx="398.24" cy="28" r="28"/>
				<circle class="st1" cx="359.99" cy="84" r="28"/>
				<circle class="st1" cx="317.83" cy="140" r="28"/>
				<circle class="st1" cx="398.24" cy="140" r="28"/>
			</g>
		</g>
		<g id="_x3C_Grid_Repeat_x3E__00000053541006802659579590000002096949173490938753_">
			<g>
				<circle class="st1" cx="464.24" cy="28" r="28"/>
				<circle class="st1" cx="544.65" cy="28" r="28"/>
				<circle class="st1" cx="506.4" cy="84" r="28"/>
				<circle class="st1" cx="464.24" cy="140" r="28"/>
				<circle class="st1" cx="544.65" cy="140" r="28"/>
			</g>
		</g>
		<g id="_x3C_Grid_Repeat_x3E__00000098910378115570230240000008006033499093757612_">
			<g>
				<circle class="st1" cx="610.65" cy="28" r="28"/>
				<circle class="st1" cx="691.07" cy="28" r="28"/>
				<circle class="st1" cx="652.81" cy="84" r="28"/>
				<circle class="st1" cx="610.65" cy="140" r="28"/>
				<circle class="st1" cx="691.07" cy="140" r="28"/>
			</g>
		</g>
		<g id="_x3C_Grid_Repeat_x3E__00000045595126147772065140000005622934632228286341_">
			<g>
				<circle class="st1" cx="25" cy="206" r="28"/>
				<circle class="st1" cx="105.42" cy="206" r="28"/>
				<circle class="st1" cx="67.16" cy="262" r="28"/>
				<circle class="st1" cx="25" cy="318" r="28"/>
				<circle class="st1" cx="105.42" cy="318" r="28"/>
			</g>
		</g>
		<g id="_x3C_Grid_Repeat_x3E__00000082341054045608765180000002419781907678062262_">
			<g>
				<circle class="st1" cx="171.42" cy="206" r="28"/>
				<circle class="st1" cx="251.83" cy="206" r="28"/>
				<circle class="st1" cx="213.57" cy="262" r="28"/>
				<circle class="st1" cx="171.42" cy="318" r="28"/>
				<circle class="st1" cx="251.83" cy="318" r="28"/>
			</g>
		</g>
		<g id="_x3C_Grid_Repeat_x3E__00000070085620577438086620000006806264026956089486_">
			<g>
				<circle class="st1" cx="317.83" cy="206" r="28"/>
				<circle class="st1" cx="398.24" cy="206" r="28"/>
				<circle class="st1" cx="359.99" cy="262" r="28"/>
				<circle class="st1" cx="317.83" cy="318" r="28"/>
				<circle class="st1" cx="398.24" cy="318" r="28"/>
			</g>
		</g>
		<g id="_x3C_Grid_Repeat_x3E__00000046341450157532754420000008500223430187761309_">
			<g>
				<circle class="st1" cx="464.24" cy="206" r="28"/>
				<circle class="st1" cx="544.65" cy="206" r="28"/>
				<circle class="st1" cx="506.4" cy="262" r="28"/>
				<circle class="st1" cx="464.24" cy="318" r="28"/>
				<circle class="st1" cx="544.65" cy="318" r="28"/>
			</g>
		</g>
		<g id="_x3C_Grid_Repeat_x3E__00000124865210779016764700000010794601240520299943_">
			<g>
				<circle class="st1" cx="610.65" cy="206" r="28"/>
				<circle class="st1" cx="691.07" cy="206" r="28"/>
				<circle class="st1" cx="652.81" cy="262" r="28"/>
				<circle class="st1" cx="610.65" cy="318" r="28"/>
				<circle class="st1" cx="691.07" cy="318" r="28"/>
			</g>
		</g>
		<g id="_x3C_Grid_Repeat_x3E__00000142166727007930291080000013458754029128081034_">
			<g>
				<circle class="st1" cx="25" cy="384" r="28"/>
				<circle class="st1" cx="105.42" cy="384" r="28"/>
				<circle class="st1" cx="67.16" cy="440" r="28"/>
				<circle class="st1" cx="25" cy="496" r="28"/>
				<circle class="st1" cx="105.42" cy="496" r="28"/>
			</g>
		</g>
		<g id="_x3C_Grid_Repeat_x3E__00000110439870814122264940000011675660848335246517_">
			<g>
				<circle class="st1" cx="171.42" cy="384" r="28"/>
				<circle class="st1" cx="251.83" cy="384" r="28"/>
				<circle class="st1" cx="213.57" cy="440" r="28"/>
				<circle class="st1" cx="171.42" cy="496" r="28"/>
				<circle class="st1" cx="251.83" cy="496" r="28"/>
			</g>
		</g>
		<g id="_x3C_Grid_Repeat_x3E__00000108991286708111944180000008916441913295105445_">
			<g>
				<circle class="st1" cx="317.83" cy="384" r="28"/>
				<circle class="st1" cx="398.24" cy="384" r="28"/>
				<circle class="st1" cx="359.99" cy="440" r="28"/>
				<circle class="st1" cx="317.83" cy="496" r="28"/>
				<circle class="st1" cx="398.24" cy="496" r="28"/>
			</g>
		</g>
		<g id="_x3C_Grid_Repeat_x3E__00000162335878807512080150000006509601029963117224_">
			<g>
				<circle class="st1" cx="464.24" cy="384" r="28"/>
				<circle class="st1" cx="544.65" cy="384" r="28"/>
				<circle class="st1" cx="506.4" cy="440" r="28"/>
				<circle class="st1" cx="464.24" cy="496" r="28"/>
				<circle class="st1" cx="544.65" cy="496" r="28"/>
			</g>
		</g>
		<g id="_x3C_Grid_Repeat_x3E__00000053517756156787477560000001693328981236229540_">
			<g>
				<circle class="st1" cx="610.65" cy="384" r="28"/>
				<circle class="st1" cx="691.07" cy="384" r="28"/>
				<circle class="st1" cx="652.81" cy="440" r="28"/>
				<circle class="st1" cx="610.65" cy="496" r="28"/>
				<circle class="st1" cx="691.07" cy="496" r="28"/>
			</g>
		</g>
		<g id="_x3C_Grid_Repeat_x3E__00000078017522730066873140000014689989641083687089_">
			<g>
				<circle class="st1" cx="25" cy="562" r="28"/>
				<circle class="st1" cx="105.42" cy="562" r="28"/>
				<circle class="st1" cx="67.16" cy="618" r="28"/>
				<circle class="st1" cx="25" cy="674" r="28"/>
				<circle class="st1" cx="105.42" cy="674" r="28"/>
			</g>
		</g>
		<g id="_x3C_Grid_Repeat_x3E__00000089544032119039474500000006642389023494802075_">
			<g>
				<circle class="st1" cx="171.42" cy="562" r="28"/>
				<circle class="st1" cx="251.83" cy="562" r="28"/>
				<circle class="st1" cx="213.57" cy="618" r="28"/>
				<circle class="st1" cx="171.42" cy="674" r="28"/>
				<circle class="st1" cx="251.83" cy="674" r="28"/>
			</g>
		</g>
		<g id="_x3C_Grid_Repeat_x3E__00000160877875664117900530000015281812261524966079_">
			<g>
				<circle class="st1" cx="317.83" cy="562" r="28"/>
				<circle class="st1" cx="398.24" cy="562" r="28"/>
				<circle class="st1" cx="359.99" cy="618" r="28"/>
				<circle class="st1" cx="317.83" cy="674" r="28"/>
				<circle class="st1" cx="398.24" cy="674" r="28"/>
			</g>
		</g>
		<g id="_x3C_Grid_Repeat_x3E__00000002375054757063031970000006009291134536108957_">
			<g>
				<circle class="st1" cx="464.24" cy="562" r="28"/>
				<circle class="st1" cx="544.65" cy="562" r="28"/>
				<circle class="st1" cx="506.4" cy="618" r="28"/>
				<circle class="st1" cx="464.24" cy="674" r="28"/>
				<circle class="st1" cx="544.65" cy="674" r="28"/>
			</g>
		</g>
		<g id="_x3C_Grid_Repeat_x3E__00000114051322810746530560000009139665807578555054_">
			<g>
				<circle class="st1" cx="610.65" cy="562" r="28"/>
				<circle class="st1" cx="691.07" cy="562" r="28"/>
				<circle class="st1" cx="652.81" cy="618" r="28"/>
				<circle class="st1" cx="610.65" cy="674" r="28"/>
				<circle class="st1" cx="691.07" cy="674" r="28"/>
			</g>
		</g>
		<g id="_x3C_Grid_Repeat_x3E__00000128454371208843687410000006207678568850526851_">
			<g>
				<circle class="st1" cx="25" cy="740" r="28"/>
				<circle class="st1" cx="105.42" cy="740" r="28"/>
				<circle class="st1" cx="67.16" cy="796" r="28"/>
				<circle class="st1" cx="25" cy="852" r="28"/>
				<circle class="st1" cx="105.42" cy="852" r="28"/>
			</g>
		</g>
		<g id="_x3C_Grid_Repeat_x3E__00000147932037861287653190000017286790089586419336_">
			<g>
				<circle class="st1" cx="171.42" cy="740" r="28"/>
				<circle class="st1" cx="251.83" cy="740" r="28"/>
				<circle class="st1" cx="213.57" cy="796" r="28"/>
				<circle class="st1" cx="171.42" cy="852" r="28"/>
				<circle class="st1" cx="251.83" cy="852" r="28"/>
			</g>
		</g>
		<g id="_x3C_Grid_Repeat_x3E__00000119828557713397472780000004412485917216052616_">
			<g>
				<circle class="st1" cx="317.83" cy="740" r="28"/>
				<circle class="st1" cx="398.24" cy="740" r="28"/>
				<circle class="st1" cx="359.99" cy="796" r="28"/>
				<circle class="st1" cx="317.83" cy="852" r="28"/>
				<circle class="st1" cx="398.24" cy="852" r="28"/>
			</g>
		</g>
		<g id="_x3C_Grid_Repeat_x3E__00000083075313419176606630000001911665409855402420_">
			<g>
				<circle class="st1" cx="464.24" cy="740" r="28"/>
				<circle class="st1" cx="544.65" cy="740" r="28"/>
				<circle class="st1" cx="506.4" cy="796" r="28"/>
				<circle class="st1" cx="464.24" cy="852" r="28"/>
				<circle class="st1" cx="544.65" cy="852" r="28"/>
			</g>
		</g>
		<g id="_x3C_Grid_Repeat_x3E__00000000906075981869878440000017164908915185190327_">
			<g>
				<circle class="st1" cx="610.65" cy="740" r="28"/>
				<circle class="st1" cx="691.07" cy="740" r="28"/>
				<circle class="st1" cx="652.81" cy="796" r="28"/>
				<circle class="st1" cx="610.65" cy="852" r="28"/>
				<circle class="st1" cx="691.07" cy="852" r="28"/>
			</g>
		</g>
	</g>
</g>
<circle class="st1" cx="281.85" cy="83.54" r="28"/>
<circle class="st1" cx="137.38" cy="83.72" r="28"/>
<circle class="st1" cx="565.23" cy="83.72" r="28"/>
<circle class="st1" cx="431.24" cy="83.54" r="28"/>
<circle class="st1" cx="137.38" cy="256.81" r="28"/>
<circle class="st1" cx="284.31" cy="256.81" r="28"/>
<circle class="st1" cx="431.24" cy="257.36" r="28"/>
<circle class="st1" cx="565.23" cy="257.36" r="28"/>
<circle class="st1" cx="138.64" cy="441.02" r="28"/>
<circle class="st1" cx="284.31" cy="431.18" r="28"/>
<circle class="st1" cx="431.24" cy="448.94" r="28"/>
<circle class="st1" cx="565.23" cy="441.02" r="28"/>
<circle class="st1" cx="137.38" cy="614.8" r="28"/>
<circle class="st1" cx="281.85" cy="614.8" r="28"/>
<circle class="st1" cx="431.24" cy="614.8" r="28"/>
<circle class="st1" cx="574.09" cy="604.99" r="28"/>
<circle class="st1" cx="137.38" cy="798.32" r="28"/>
<circle class="st1" cx="281.85" cy="798.32" r="28"/>
<circle class="st1" cx="431.24" cy="798.32" r="28"/>
<circle class="st1" cx="565.23" cy="798.32" r="28"/>
</svg>
