<?xml version="1.0" encoding="utf-8"?>
<!-- Generator: Adobe Illustrator 27.4.0, SVG Export Plug-In . SVG Version: 6.00 Build 0)  -->
<svg version="1.1" id="Layer_1" xmlns="http://www.w3.org/2000/svg" xmlns:xlink="http://www.w3.org/1999/xlink" x="0px" y="0px"
	 viewBox="0 0 595.28 841.89" style="enable-background:new 0 0 595.28 841.89;" xml:space="preserve">
<style type="text/css">
	.st0{clip-path:url(#SVGID_00000165229812607693179910000015115562226417616770_);}
	.st1{fill:#F26747;}
</style>
<g>
	<defs>
		<rect id="SVGID_1_" x="-3" width="596.23" height="844.06"/>
	</defs>
	<clipPath id="SVGID_00000015338346980929142740000011683876381245459126_">
		<use xlink:href="#SVGID_1_"  style="overflow:visible;"/>
	</clipPath>
	<g style="clip-path:url(#SVGID_00000015338346980929142740000011683876381245459126_);">
		<g id="_x3C_Grid_Repeat_x3E__00000016035685325877410640000014539091415503116210_">
			<g>
				<circle class="st1" cx="25" cy="28" r="28"/>
				<circle class="st1" cx="105.42" cy="28" r="28"/>
				<circle class="st1" cx="67.16" cy="84" r="28"/>
				<circle class="st1" cx="25" cy="140" r="28"/>
				<circle class="st1" cx="105.42" cy="140" r="28"/>
			</g>
		</g>
		<g id="_x3C_Grid_Repeat_x3E__00000035529203169609737980000010285544800217181830_">
			<g>
				<circle class="st1" cx="171.42" cy="28" r="28"/>
				<circle class="st1" cx="251.83" cy="28" r="28"/>
				<circle class="st1" cx="213.57" cy="84" r="28"/>
				<circle class="st1" cx="171.42" cy="140" r="28"/>
				<circle class="st1" cx="251.83" cy="140" r="28"/>
			</g>
		</g>
		<g id="_x3C_Grid_Repeat_x3E__00000114777589371905092660000011188451292550849413_">
			<g>
				<circle class="st1" cx="317.83" cy="28" r="28"/>
				<circle class="st1" cx="398.24" cy="28" r="28"/>
				<circle class="st1" cx="359.99" cy="84" r="28"/>
				<circle class="st1" cx="317.83" cy="140" r="28"/>
				<circle class="st1" cx="398.24" cy="140" r="28"/>
			</g>
		</g>
		<g id="_x3C_Grid_Repeat_x3E__00000090254717708602121040000001691471981784925615_">
			<g>
				<circle class="st1" cx="464.24" cy="28" r="28"/>
				<circle class="st1" cx="544.65" cy="28" r="28"/>
				<circle class="st1" cx="506.4" cy="84" r="28"/>
				<circle class="st1" cx="464.24" cy="140" r="28"/>
				<circle class="st1" cx="544.65" cy="140" r="28"/>
			</g>
		</g>
		<g id="_x3C_Grid_Repeat_x3E__00000162318682147696918970000008991788516509194906_">
			<g>
				<circle class="st1" cx="610.65" cy="28" r="28"/>
				<circle class="st1" cx="610.65" cy="140" r="28"/>
			</g>
		</g>
		<g id="_x3C_Grid_Repeat_x3E__00000030476615422952475270000014393326232004621231_">
			<g>
				<circle class="st1" cx="25" cy="206" r="28"/>
				<circle class="st1" cx="105.42" cy="206" r="28"/>
				<circle class="st1" cx="67.16" cy="262" r="28"/>
				<circle class="st1" cx="25" cy="318" r="28"/>
				<circle class="st1" cx="105.42" cy="318" r="28"/>
			</g>
		</g>
		<g id="_x3C_Grid_Repeat_x3E__00000056422746647449127380000012342076318488590486_">
			<g>
				<circle class="st1" cx="171.42" cy="206" r="28"/>
				<circle class="st1" cx="251.83" cy="206" r="28"/>
				<circle class="st1" cx="213.57" cy="262" r="28"/>
				<circle class="st1" cx="171.42" cy="318" r="28"/>
				<circle class="st1" cx="251.83" cy="318" r="28"/>
			</g>
		</g>
		<g id="_x3C_Grid_Repeat_x3E__00000013889748151796866380000000453158988814585766_">
			<g>
				<circle class="st1" cx="317.83" cy="206" r="28"/>
				<circle class="st1" cx="398.24" cy="206" r="28"/>
				<circle class="st1" cx="359.99" cy="262" r="28"/>
				<circle class="st1" cx="317.83" cy="318" r="28"/>
				<circle class="st1" cx="398.24" cy="318" r="28"/>
			</g>
		</g>
		<g id="_x3C_Grid_Repeat_x3E__00000137106674813835640890000015164673101932879791_">
			<g>
				<circle class="st1" cx="464.24" cy="206" r="28"/>
				<circle class="st1" cx="544.65" cy="206" r="28"/>
				<circle class="st1" cx="506.4" cy="262" r="28"/>
				<circle class="st1" cx="464.24" cy="318" r="28"/>
				<circle class="st1" cx="544.65" cy="318" r="28"/>
			</g>
		</g>
		<g id="_x3C_Grid_Repeat_x3E__00000097486629987700692060000006168901802727627685_">
			<g>
				<circle class="st1" cx="610.65" cy="206" r="28"/>
				<circle class="st1" cx="610.65" cy="318" r="28"/>
			</g>
		</g>
		<g id="_x3C_Grid_Repeat_x3E__00000035509476110208894790000013240790612441310375_">
			<g>
				<circle class="st1" cx="25" cy="384" r="28"/>
				<circle class="st1" cx="105.42" cy="384" r="28"/>
				<circle class="st1" cx="67.16" cy="440" r="28"/>
				<circle class="st1" cx="25" cy="496" r="28"/>
				<circle class="st1" cx="105.42" cy="496" r="28"/>
			</g>
		</g>
		<g id="_x3C_Grid_Repeat_x3E__00000042704469399956574200000002640602562171202487_">
			<g>
				<circle class="st1" cx="171.42" cy="384" r="28"/>
				<circle class="st1" cx="251.83" cy="384" r="28"/>
				<circle class="st1" cx="213.57" cy="440" r="28"/>
				<circle class="st1" cx="171.42" cy="496" r="28"/>
				<circle class="st1" cx="251.83" cy="496" r="28"/>
			</g>
		</g>
		<g id="_x3C_Grid_Repeat_x3E__00000134233914326909096590000008483408007665782150_">
			<g>
				<circle class="st1" cx="317.83" cy="384" r="28"/>
				<circle class="st1" cx="398.24" cy="384" r="28"/>
				<circle class="st1" cx="359.99" cy="440" r="28"/>
				<circle class="st1" cx="317.83" cy="496" r="28"/>
				<circle class="st1" cx="398.24" cy="496" r="28"/>
			</g>
		</g>
		<g id="_x3C_Grid_Repeat_x3E__00000000917848172518947260000000636074011418089856_">
			<g>
				<circle class="st1" cx="464.24" cy="384" r="28"/>
				<circle class="st1" cx="544.65" cy="384" r="28"/>
				<circle class="st1" cx="506.4" cy="440" r="28"/>
				<circle class="st1" cx="464.24" cy="496" r="28"/>
				<circle class="st1" cx="544.65" cy="496" r="28"/>
			</g>
		</g>
		<g id="_x3C_Grid_Repeat_x3E__00000165211739183782845980000014606703693297262240_">
			<g>
				<circle class="st1" cx="610.65" cy="384" r="28"/>
				<circle class="st1" cx="610.65" cy="496" r="28"/>
			</g>
		</g>
		<g id="_x3C_Grid_Repeat_x3E__00000181049143073074396920000013608224988945337276_">
			<g>
				<circle class="st1" cx="25" cy="562" r="28"/>
				<circle class="st1" cx="105.42" cy="562" r="28"/>
				<circle class="st1" cx="67.16" cy="618" r="28"/>
				<circle class="st1" cx="25" cy="674" r="28"/>
				<circle class="st1" cx="105.42" cy="674" r="28"/>
			</g>
		</g>
		<g id="_x3C_Grid_Repeat_x3E__00000157284007688719381040000004681545404465438370_">
			<g>
				<circle class="st1" cx="171.42" cy="562" r="28"/>
				<circle class="st1" cx="251.83" cy="562" r="28"/>
				<circle class="st1" cx="213.57" cy="618" r="28"/>
				<circle class="st1" cx="171.42" cy="674" r="28"/>
				<circle class="st1" cx="251.83" cy="674" r="28"/>
			</g>
		</g>
		<g id="_x3C_Grid_Repeat_x3E__00000018927475358666105710000002267127218936579237_">
			<g>
				<circle class="st1" cx="317.83" cy="562" r="28"/>
				<circle class="st1" cx="398.24" cy="562" r="28"/>
				<circle class="st1" cx="359.99" cy="618" r="28"/>
				<circle class="st1" cx="317.83" cy="674" r="28"/>
				<circle class="st1" cx="398.24" cy="674" r="28"/>
			</g>
		</g>
		<g id="_x3C_Grid_Repeat_x3E__00000061436424955630795300000009361049694439069119_">
			<g>
				<circle class="st1" cx="464.24" cy="562" r="28"/>
				<circle class="st1" cx="544.65" cy="562" r="28"/>
				<circle class="st1" cx="506.4" cy="618" r="28"/>
				<circle class="st1" cx="464.24" cy="674" r="28"/>
				<circle class="st1" cx="544.65" cy="674" r="28"/>
			</g>
		</g>
		<g id="_x3C_Grid_Repeat_x3E__00000005986435719162688150000009773823537251008700_">
			<g>
				<circle class="st1" cx="610.65" cy="562" r="28"/>
				<circle class="st1" cx="610.65" cy="674" r="28"/>
			</g>
		</g>
		<g id="_x3C_Grid_Repeat_x3E__00000039830291213950244760000013393539087577790086_">
			<g>
				<circle class="st1" cx="25" cy="740" r="28"/>
				<circle class="st1" cx="105.42" cy="740" r="28"/>
				<circle class="st1" cx="67.16" cy="796" r="28"/>
				<circle class="st1" cx="25" cy="852" r="28"/>
				<circle class="st1" cx="105.42" cy="852" r="28"/>
			</g>
		</g>
		<g id="_x3C_Grid_Repeat_x3E__00000018954622627152965600000012137695569137249184_">
			<g>
				<circle class="st1" cx="171.42" cy="740" r="28"/>
				<circle class="st1" cx="251.83" cy="740" r="28"/>
				<circle class="st1" cx="213.57" cy="796" r="28"/>
				<circle class="st1" cx="171.42" cy="852" r="28"/>
				<circle class="st1" cx="251.83" cy="852" r="28"/>
			</g>
		</g>
		<g id="_x3C_Grid_Repeat_x3E__00000119825907663582140900000011545742067197672373_">
			<g>
				<circle class="st1" cx="317.83" cy="740" r="28"/>
				<circle class="st1" cx="398.24" cy="740" r="28"/>
				<circle class="st1" cx="359.99" cy="796" r="28"/>
				<circle class="st1" cx="317.83" cy="852" r="28"/>
				<circle class="st1" cx="398.24" cy="852" r="28"/>
			</g>
		</g>
		<g id="_x3C_Grid_Repeat_x3E__00000025404727798964326100000013469984028050780588_">
			<g>
				<circle class="st1" cx="464.24" cy="740" r="28"/>
				<circle class="st1" cx="544.65" cy="740" r="28"/>
				<circle class="st1" cx="506.4" cy="796" r="28"/>
				<circle class="st1" cx="464.24" cy="852" r="28"/>
				<circle class="st1" cx="544.65" cy="852" r="28"/>
			</g>
		</g>
		<g id="_x3C_Grid_Repeat_x3E__00000142178509420017527010000017266522823159251361_">
			<g>
				<circle class="st1" cx="610.65" cy="740" r="28"/>
				<circle class="st1" cx="610.65" cy="852" r="28"/>
			</g>
		</g>
	</g>
</g>
<circle class="st1" cx="281.85" cy="83.54" r="28"/>
<circle class="st1" cx="137.38" cy="83.72" r="28"/>
<circle class="st1" cx="565.23" cy="83.72" r="28"/>
<circle class="st1" cx="431.24" cy="83.54" r="28"/>
<circle class="st1" cx="137.38" cy="256.81" r="28"/>
<circle class="st1" cx="284.31" cy="256.81" r="28"/>
<circle class="st1" cx="431.24" cy="257.36" r="28"/>
<circle class="st1" cx="565.23" cy="257.36" r="28"/>
<circle class="st1" cx="138.64" cy="441.02" r="28"/>
<circle class="st1" cx="284.31" cy="431.18" r="28"/>
<circle class="st1" cx="431.24" cy="448.94" r="28"/>
<circle class="st1" cx="565.23" cy="441.02" r="28"/>
<circle class="st1" cx="137.38" cy="614.8" r="28"/>
<circle class="st1" cx="281.85" cy="614.8" r="28"/>
<circle class="st1" cx="431.24" cy="614.8" r="28"/>
<circle class="st1" cx="574.09" cy="604.99" r="28"/>
<circle class="st1" cx="137.38" cy="798.32" r="28"/>
<circle class="st1" cx="281.85" cy="798.32" r="28"/>
<circle class="st1" cx="431.24" cy="798.32" r="28"/>
<circle class="st1" cx="565.23" cy="798.32" r="28"/>
</svg>
