<?xml version="1.0" encoding="utf-8"?>
<!-- Generator: Adobe Illustrator 27.4.0, SVG Export Plug-In . SVG Version: 6.00 Build 0)  -->
<svg version="1.1" id="Layer_1" xmlns="http://www.w3.org/2000/svg" xmlns:xlink="http://www.w3.org/1999/xlink" x="0px" y="0px"
	 viewBox="0 0 595.28 841.89" style="enable-background:new 0 0 595.28 841.89;" xml:space="preserve">
<style type="text/css">
	.st0{clip-path:url(#SVGID_00000159469506917298153600000010743403891397126039_);}
	.st1{fill:#F26747;}
</style>
<g>
	<defs>
		<rect id="SVGID_1_" x="-6.81" y="-15.21" width="608.9" height="872.31"/>
	</defs>
	<clipPath id="SVGID_00000083057653930846012820000003461264040733854651_">
		<use xlink:href="#SVGID_1_"  style="overflow:visible;"/>
	</clipPath>
	<g style="clip-path:url(#SVGID_00000083057653930846012820000003461264040733854651_);">
		<g id="_x3C_Grid_Repeat_x3E__00000093151029563526043980000002474118722462189217_">
			<g>
				<circle class="st1" cx="21.19" cy="12.79" r="28"/>
				<circle class="st1" cx="101.6" cy="12.79" r="28"/>
				<circle class="st1" cx="63.35" cy="68.79" r="28"/>
				<circle class="st1" cx="21.19" cy="124.79" r="28"/>
				<circle class="st1" cx="101.6" cy="124.79" r="28"/>
			</g>
		</g>
		<g id="_x3C_Grid_Repeat_x3E__00000115512333376248406230000001730341469285871259_">
			<g>
				<circle class="st1" cx="167.6" cy="12.79" r="28"/>
				<circle class="st1" cx="248.01" cy="12.79" r="28"/>
				<circle class="st1" cx="209.76" cy="68.79" r="28"/>
				<circle class="st1" cx="167.6" cy="124.79" r="28"/>
				<circle class="st1" cx="248.01" cy="124.79" r="28"/>
			</g>
		</g>
		<g id="_x3C_Grid_Repeat_x3E__00000096032094968190590270000001407276854101152393_">
			<g>
				<circle class="st1" cx="314.01" cy="12.79" r="28"/>
				<circle class="st1" cx="394.43" cy="12.79" r="28"/>
				<circle class="st1" cx="356.17" cy="68.79" r="28"/>
				<circle class="st1" cx="314.01" cy="124.79" r="28"/>
				<circle class="st1" cx="394.43" cy="124.79" r="28"/>
			</g>
		</g>
		<g id="_x3C_Grid_Repeat_x3E__00000039824353391475193120000017318111044968104581_">
			<g>
				<circle class="st1" cx="460.43" cy="12.79" r="28"/>
				<circle class="st1" cx="540.84" cy="12.79" r="28"/>
				<circle class="st1" cx="502.59" cy="68.79" r="28"/>
				<circle class="st1" cx="460.43" cy="124.79" r="28"/>
				<circle class="st1" cx="540.84" cy="124.79" r="28"/>
			</g>
		</g>
		<g id="_x3C_Grid_Repeat_x3E__00000022527274041510932180000013482532042430685328_">
			<g>
				<circle class="st1" cx="606.84" cy="12.79" r="28"/>
				<circle class="st1" cx="687.25" cy="12.79" r="28"/>
				<circle class="st1" cx="649" cy="68.79" r="28"/>
				<circle class="st1" cx="606.84" cy="124.79" r="28"/>
				<circle class="st1" cx="687.25" cy="124.79" r="28"/>
			</g>
		</g>
		<g id="_x3C_Grid_Repeat_x3E__00000174571354330126299500000007770953426312012184_">
			<g>
				<circle class="st1" cx="21.19" cy="190.79" r="28"/>
				<circle class="st1" cx="101.6" cy="190.79" r="28"/>
				<circle class="st1" cx="63.35" cy="246.79" r="28"/>
				<circle class="st1" cx="21.19" cy="302.79" r="28"/>
				<circle class="st1" cx="101.6" cy="302.79" r="28"/>
			</g>
		</g>
		<g id="_x3C_Grid_Repeat_x3E__00000178909161613086801830000008020118484503863731_">
			<g>
				<circle class="st1" cx="167.6" cy="190.79" r="28"/>
				<circle class="st1" cx="248.01" cy="190.79" r="28"/>
				<circle class="st1" cx="209.76" cy="246.79" r="28"/>
				<circle class="st1" cx="167.6" cy="302.79" r="28"/>
				<circle class="st1" cx="248.01" cy="302.79" r="28"/>
			</g>
		</g>
		<g id="_x3C_Grid_Repeat_x3E__00000124857163968894426410000003469333080838113686_">
			<g>
				<circle class="st1" cx="314.01" cy="190.79" r="28"/>
				<circle class="st1" cx="394.43" cy="190.79" r="28"/>
				<circle class="st1" cx="356.17" cy="246.79" r="28"/>
				<circle class="st1" cx="314.01" cy="302.79" r="28"/>
				<circle class="st1" cx="394.43" cy="302.79" r="28"/>
			</g>
		</g>
		<g id="_x3C_Grid_Repeat_x3E__00000017495477573197685190000011468588569882182040_">
			<g>
				<circle class="st1" cx="460.43" cy="190.79" r="28"/>
				<circle class="st1" cx="540.84" cy="190.79" r="28"/>
				<circle class="st1" cx="502.59" cy="246.79" r="28"/>
				<circle class="st1" cx="460.43" cy="302.79" r="28"/>
				<circle class="st1" cx="540.84" cy="302.79" r="28"/>
			</g>
		</g>
		<g id="_x3C_Grid_Repeat_x3E__00000143599736479702625930000013456831002914646714_">
			<g>
				<circle class="st1" cx="606.84" cy="190.79" r="28"/>
				<circle class="st1" cx="687.25" cy="190.79" r="28"/>
				<circle class="st1" cx="649" cy="246.79" r="28"/>
				<circle class="st1" cx="606.84" cy="302.79" r="28"/>
				<circle class="st1" cx="687.25" cy="302.79" r="28"/>
			</g>
		</g>
		<g id="_x3C_Grid_Repeat_x3E__00000135663668380740130880000008981366087319567524_">
			<g>
				<circle class="st1" cx="21.19" cy="368.79" r="28"/>
				<circle class="st1" cx="101.6" cy="368.79" r="28"/>
				<circle class="st1" cx="63.35" cy="424.79" r="28"/>
				<circle class="st1" cx="21.19" cy="480.79" r="28"/>
				<circle class="st1" cx="101.6" cy="480.79" r="28"/>
			</g>
		</g>
		<g id="_x3C_Grid_Repeat_x3E__00000168820270856461265000000004599001002996669601_">
			<g>
				<circle class="st1" cx="167.6" cy="368.79" r="28"/>
				<circle class="st1" cx="248.01" cy="368.79" r="28"/>
				<circle class="st1" cx="209.76" cy="424.79" r="28"/>
				<circle class="st1" cx="167.6" cy="480.79" r="28"/>
				<circle class="st1" cx="248.01" cy="480.79" r="28"/>
			</g>
		</g>
		<g id="_x3C_Grid_Repeat_x3E__00000121970897972326381360000014226721875570333112_">
			<g>
				<circle class="st1" cx="314.01" cy="368.79" r="28"/>
				<circle class="st1" cx="394.43" cy="368.79" r="28"/>
				<circle class="st1" cx="356.17" cy="424.79" r="28"/>
				<circle class="st1" cx="314.01" cy="480.79" r="28"/>
				<circle class="st1" cx="394.43" cy="480.79" r="28"/>
			</g>
		</g>
		<g id="_x3C_Grid_Repeat_x3E__00000135681827389497603700000000711093569261099951_">
			<g>
				<circle class="st1" cx="460.43" cy="368.79" r="28"/>
				<circle class="st1" cx="540.84" cy="368.79" r="28"/>
				<circle class="st1" cx="502.59" cy="424.79" r="28"/>
				<circle class="st1" cx="460.43" cy="480.79" r="28"/>
				<circle class="st1" cx="540.84" cy="480.79" r="28"/>
			</g>
		</g>
		<g id="_x3C_Grid_Repeat_x3E__00000078025565473860305480000008900558166596397231_">
			<g>
				<circle class="st1" cx="606.84" cy="368.79" r="28"/>
				<circle class="st1" cx="687.25" cy="368.79" r="28"/>
				<circle class="st1" cx="649" cy="424.79" r="28"/>
				<circle class="st1" cx="606.84" cy="480.79" r="28"/>
				<circle class="st1" cx="687.25" cy="480.79" r="28"/>
			</g>
		</g>
		<g id="_x3C_Grid_Repeat_x3E__00000103261327943972387320000009150449955090514829_">
			<g>
				<circle class="st1" cx="21.19" cy="546.79" r="28"/>
				<circle class="st1" cx="101.6" cy="546.79" r="28"/>
				<circle class="st1" cx="63.35" cy="602.79" r="28"/>
				<circle class="st1" cx="21.19" cy="658.79" r="28"/>
				<circle class="st1" cx="101.6" cy="658.79" r="28"/>
			</g>
		</g>
		<g id="_x3C_Grid_Repeat_x3E__00000165198647893626862340000004208213667231420309_">
			<g>
				<circle class="st1" cx="167.6" cy="546.79" r="28"/>
				<circle class="st1" cx="248.01" cy="546.79" r="28"/>
				<circle class="st1" cx="209.76" cy="602.79" r="28"/>
				<circle class="st1" cx="167.6" cy="658.79" r="28"/>
				<circle class="st1" cx="248.01" cy="658.79" r="28"/>
			</g>
		</g>
		<g id="_x3C_Grid_Repeat_x3E__00000031168158979633835330000015504025315497566109_">
			<g>
				<circle class="st1" cx="314.01" cy="546.79" r="28"/>
				<circle class="st1" cx="394.43" cy="546.79" r="28"/>
				<circle class="st1" cx="356.17" cy="602.79" r="28"/>
				<circle class="st1" cx="314.01" cy="658.79" r="28"/>
				<circle class="st1" cx="394.43" cy="658.79" r="28"/>
			</g>
		</g>
		<g id="_x3C_Grid_Repeat_x3E__00000160154218606464329850000004253646182868585372_">
			<g>
				<circle class="st1" cx="460.43" cy="546.79" r="28"/>
				<circle class="st1" cx="540.84" cy="546.79" r="28"/>
				<circle class="st1" cx="502.59" cy="602.79" r="28"/>
				<circle class="st1" cx="460.43" cy="658.79" r="28"/>
				<circle class="st1" cx="540.84" cy="658.79" r="28"/>
			</g>
		</g>
		<g id="_x3C_Grid_Repeat_x3E__00000181053186373570512230000011261678442285968515_">
			<g>
				<circle class="st1" cx="606.84" cy="546.79" r="28"/>
				<circle class="st1" cx="687.25" cy="546.79" r="28"/>
				<circle class="st1" cx="649" cy="602.79" r="28"/>
				<circle class="st1" cx="606.84" cy="658.79" r="28"/>
				<circle class="st1" cx="687.25" cy="658.79" r="28"/>
			</g>
		</g>
		<g id="_x3C_Grid_Repeat_x3E__00000026855299015818797980000011981281977568910212_">
			<g>
				<circle class="st1" cx="21.19" cy="724.79" r="28"/>
				<circle class="st1" cx="101.6" cy="724.79" r="28"/>
				<circle class="st1" cx="63.35" cy="780.79" r="28"/>
				<circle class="st1" cx="21.19" cy="836.79" r="28"/>
				<circle class="st1" cx="101.6" cy="836.79" r="28"/>
			</g>
		</g>
		<g id="_x3C_Grid_Repeat_x3E__00000183969750060986731780000010082636003791621510_">
			<g>
				<circle class="st1" cx="167.6" cy="724.79" r="28"/>
				<circle class="st1" cx="248.01" cy="724.79" r="28"/>
				<circle class="st1" cx="209.76" cy="780.79" r="28"/>
				<circle class="st1" cx="167.6" cy="836.79" r="28"/>
				<circle class="st1" cx="248.01" cy="836.79" r="28"/>
			</g>
		</g>
		<g id="_x3C_Grid_Repeat_x3E__00000158744579693420865390000002514478644156014727_">
			<g>
				<circle class="st1" cx="314.01" cy="724.79" r="28"/>
				<circle class="st1" cx="394.43" cy="724.79" r="28"/>
				<circle class="st1" cx="356.17" cy="780.79" r="28"/>
				<circle class="st1" cx="314.01" cy="836.79" r="28"/>
				<circle class="st1" cx="394.43" cy="836.79" r="28"/>
			</g>
		</g>
		<g id="_x3C_Grid_Repeat_x3E__00000060019512685816220800000000015178909159473537_">
			<g>
				<circle class="st1" cx="460.43" cy="724.79" r="28"/>
				<circle class="st1" cx="540.84" cy="724.79" r="28"/>
				<circle class="st1" cx="502.59" cy="780.79" r="28"/>
				<circle class="st1" cx="460.43" cy="836.79" r="28"/>
				<circle class="st1" cx="540.84" cy="836.79" r="28"/>
			</g>
		</g>
		<g id="_x3C_Grid_Repeat_x3E__00000134961818215433931410000002408083774595731093_">
			<g>
				<circle class="st1" cx="606.84" cy="724.79" r="28"/>
				<circle class="st1" cx="687.25" cy="724.79" r="28"/>
				<circle class="st1" cx="649" cy="780.79" r="28"/>
				<circle class="st1" cx="606.84" cy="836.79" r="28"/>
				<circle class="st1" cx="687.25" cy="836.79" r="28"/>
			</g>
		</g>
	</g>
</g>
<circle class="st1" cx="281.85" cy="68.9" r="28"/>
<circle class="st1" cx="138.38" cy="68.9" r="28"/>
<circle class="st1" cx="574.09" cy="68.9" r="28"/>
<circle class="st1" cx="431.24" cy="68.9" r="28"/>
<circle class="st1" cx="137.38" cy="244.92" r="28"/>
<circle class="st1" cx="281.85" cy="244.92" r="28"/>
<circle class="st1" cx="431.24" cy="244.92" r="28"/>
<circle class="st1" cx="574.09" cy="244.92" r="28"/>
<circle class="st1" cx="138.38" cy="420.94" r="28"/>
<circle class="st1" cx="281.85" cy="420.94" r="28"/>
<circle class="st1" cx="431.24" cy="431.18" r="28"/>
<circle class="st1" cx="574.09" cy="431.18" r="28"/>
<circle class="st1" cx="137.38" cy="596.97" r="28"/>
<circle class="st1" cx="281.85" cy="604.99" r="28"/>
<circle class="st1" cx="431.24" cy="604.99" r="28"/>
<circle class="st1" cx="574.09" cy="604.99" r="28"/>
<circle class="st1" cx="137.38" cy="783.65" r="28"/>
<circle class="st1" cx="281.85" cy="783.65" r="28"/>
<circle class="st1" cx="431.24" cy="778.81" r="28"/>
<circle class="st1" cx="574.09" cy="783.65" r="28"/>
</svg>
